<?xml version="1.0" standalone="no"?>
<!DOCTYPE svg PUBLIC "-//W3C//DTD SVG 1.1//EN"
	"http://www.w3.org/Graphics/SVG/1.1/DTD/svg11.dtd">
<svg xmlns="http://www.w3.org/2000/svg"
     xmlns:xlink="http://www.w3.org/1999/xlink"
     xml:space='preserve'
	width="513" height="78">
<title>AuClairDeLaLune.abc (1)</title>
<g transform="scale(0.750)">
</g>
<g transform="scale(0.525)">
<defs>
<ellipse id="hd" rx="4.2" ry="3.2"
	transform="rotate(-20)" fill="currentColor"/>
</defs>
<use x="89.19" y="57.49" xlink:href="#hd"/>
<path d="M92.69 57.49v-20.00" stroke="currentColor" fill="none"/>
</g>
<g transform="scale(0.750)" font-family="Times" font-size="15.00" font-weight="bold">
<text x="70.13" y="42.34">= 80</text>
<path stroke="currentColor" fill="none"
	d="M13.33 80.34h233.20m-233.20 -6h233.20m-233.20 -6h233.20m-233.20 -6h233.20m-233.20 -6h233.20"/>
<defs>
<path id="utclef" fill="currentColor" d="m-50 -90
	c-72 -41 -72 -158 52 -188
	c150 -10 220 188 90 256
	c-114 52 -275 0 -293 -136
	c-15 -181 93 -229 220 -334
	c88 -87 79 -133 62 -210
	c-51 33 -94 105 -89 186
	c17 267 36 374 49 574
	c6 96 -19 134 -77 135
	c-80 1 -126 -93 -61 -133
	c85 -41 133 101 31 105
	c23 17 92 37 90 -92
	c-10 -223 -39 -342 -50 -617
	c0 -90 0 -162 96 -232
	c56 72 63 230 22 289
	c-74 106 -257 168 -255 316
	c9 153 148 185 252 133
	c86 -65 29 -192 -80 -176
	c-71 12 -105 67 -59 124"/>
<use id="tclef" transform="scale(0.045)"
	xlink:href="#utclef"/>
</defs>
<use x="25.33" y="80.34" xlink:href="#tclef"/>
<defs>
<path id="csig" fill="currentColor" d="
	m1 -17.3
	c0.9 0 2.3 0.7 2.4 2.2
	c-1.2 -2 -3.6 0.1 -1.6 1.7
	c2 1 3.8 -3.5 -0.8 -4.7
	c-2 -0.4 -6.4 1.3 -5.8 7
	c0.4 6.4 7.9 6.8 9.1 0.7
	c-2.3 5.6 -6.7 5.1 -6.8 0
	c-0.5 -4.4 0.7 -7.5 3.5 -6.9"/>
</defs>
<use x="43.83" y="80.34" xlink:href="#csig"/>
<path fill="currentColor"
	d="M65.03 65.34l77.10 0.00v3.20l-77.10 -0.00"/>
<defs>
<path id="hl" stroke="currentColor" d="m-6 0h12"/>
</defs>
<use x="61.83" y="86.34" xlink:href="#hl"/>
<use x="61.83" y="86.34" xlink:href="#hd"/>
<path d="M65.33 86.34v-20.00" stroke="currentColor" fill="none"/>
<use x="87.33" y="86.34" xlink:href="#hl"/>
<use x="87.33" y="86.34" xlink:href="#hd"/>
<path d="M90.83 86.34v-20.00" stroke="currentColor" fill="none"/>
<use x="112.73" y="86.34" xlink:href="#hl"/>
<use x="112.73" y="86.34" xlink:href="#hd"/>
<path d="M116.23 86.34v-20.00" stroke="currentColor" fill="none"/>
<use x="138.23" y="83.34" xlink:href="#hd"/>
<path d="M141.73 83.34v-17.00" stroke="currentColor" fill="none"/>
<use x="166.53" y="80.34" xlink:href="#hd"/>
<path d="M170.03 80.34v-20.00" stroke="currentColor" fill="none"/>
<use x="206.53" y="83.34" xlink:href="#hd"/>
<path d="M210.03 83.34v-20.00" stroke="currentColor" fill="none"/>
</g>
</svg>
